<svg xmlns="http://www.w3.org/2000/svg" viewBox="0 0 500 500">
  
<g transform="matrix(20.833333333333332,0,0,20.833333333333332,0,0)"><path d="M3,22.5H21a3,3,0,0,0,3-3V8.5a3,3,0,0,0-3-3H17.1a.24.24,0,0,1-.24-.22l-.15-1.15a3,3,0,0,0-3-2.63H10.27a3,3,0,0,0-3,2.63L7.14,5.28a.24.24,0,0,1-.24.22H3a3,3,0,0,0-3,3v11A3,3,0,0,0,3,22.5ZM9.27,4.38a1,1,0,0,1,1-.88h3.46a1,1,0,0,1,1,.88l.1.84a.25.25,0,0,1-.06.2.26.26,0,0,1-.19.08H9.42a.26.26,0,0,1-.19-.08.25.25,0,0,1-.06-.2ZM5.25,11A.76.76,0,0,1,6,10.25H18a.76.76,0,0,1,.75.75v.5a.76.76,0,0,1-.75.75H6a.76.76,0,0,1-.75-.75Zm0,5.5A.76.76,0,0,1,6,15.75H18a.76.76,0,0,1,.75.75V17a.76.76,0,0,1-.75.75H6A.76.76,0,0,1,5.25,17Z" style="fill: #000000"></path></g></svg>