<?xml version="1.0" encoding="utf-8"?>
<!-- Generator: Adobe Illustrator 25.4.5, SVG Export Plug-In . SVG Version: 6.00 Build 0)  -->
<svg version="1.1" id="Ebene_1" xmlns="http://www.w3.org/2000/svg" xmlns:xlink="http://www.w3.org/1999/xlink" x="0px" y="0px"
	 viewBox="0 0 20.99 24.84" style="enable-background:new 0 0 20.99 24.84;" xml:space="preserve">
<style type="text/css">
	.st0{fill:#299386;}
	.st1{fill:#FFFFFF;}
</style>
<path class="st1" d="M17.97,10.6c-0.04-0.03-0.07-0.06-0.14-0.1c-0.07-0.09-0.14-0.17-0.22-0.24l-8.2-7.71
	c-0.87-0.81-2.27-0.81-3.14,0c-0.43,0.4-0.66,0.94-0.66,1.5c0,0.57,0.23,1.1,0.66,1.5l7.04,6.61l-7.07,7.17
	c-0.42,0.43-0.64,0.99-0.62,1.57s0.28,1.13,0.74,1.52C6.79,22.81,7.34,23,7.9,23c0.62,0,1.23-0.23,1.68-0.69l8.5-8.62
	c0.42-0.43,0.64-0.99,0.62-1.57C18.69,11.53,18.42,10.99,17.97,10.6z"/>
</svg>
