<svg xmlns="http://www.w3.org/2000/svg" viewBox="0 0 48 48">
  
<g transform="matrix(2,0,0,2,0,0)"><g>
    <path d="M22,5a.76.76,0,0,0,.23-.75.72.72,0,0,0-.56-.55L15.11,2.24a.76.76,0,0,0-.65.16A.73.73,0,0,0,14.2,3l.44,6.68a.76.76,0,0,0,.46.64.72.72,0,0,0,.29.06.76.76,0,0,0,.49-.18l1.23-1.06a.27.27,0,0,1,.23-.05.25.25,0,0,1,.17.16,11.34,11.34,0,0,1-2,11.15,1.5,1.5,0,0,0,2.29,1.94,14.37,14.37,0,0,0,2-15.3.26.26,0,0,1,.06-.3Z" style="fill: #000000"></path>
    <path d="M7.33,17H3.2a1.44,1.44,0,0,0-1.44,1.43v4.13A1.44,1.44,0,0,0,3.2,24H7.33a1.43,1.43,0,0,0,1.43-1.44V18.43A1.43,1.43,0,0,0,7.33,17Zm-.57,4.75a.25.25,0,0,1-.25.25H4a.25.25,0,0,1-.25-.25v-2.5A.25.25,0,0,1,4,19h2.5a.25.25,0,0,1,.25.25Z" style="fill: #000000"></path>
    <path d="M8.76,9.93A1.43,1.43,0,0,0,7.33,8.5H3.2A1.44,1.44,0,0,0,1.76,9.93v4.13A1.44,1.44,0,0,0,3.2,15.5H7.33a1.43,1.43,0,0,0,1.43-1.44Zm-2,3.32a.25.25,0,0,1-.25.25H4a.25.25,0,0,1-.25-.25v-2.5A.25.25,0,0,1,4,10.5h2.5a.25.25,0,0,1,.25.25Z" style="fill: #000000"></path>
    <rect x="1.76" width="7" height="7" rx="1.43" style="fill: #000000"></rect>
  </g></g></svg>