<svg xmlns="http://www.w3.org/2000/svg" viewBox="0 0 500 500">
  
<g transform="matrix(20.833333333333332,0,0,20.833333333333332,0,0)"><g>
    <path d="M22,0H2A2,2,0,0,0,0,2V22a2,2,0,0,0,2,2H22a2,2,0,0,0,2-2V2A2,2,0,0,0,22,0Zm0,21.5a.5.5,0,0,1-.5.5H2.5a.5.5,0,0,1-.5-.5V2.5A.5.5,0,0,1,2.5,2h19a.47.47,0,0,1,.35.15A.47.47,0,0,1,22,2.5Z" style="fill: #000000"></path>
    <rect x="4.25" y="4" width="15.5" height="5" rx="1.25" style="fill: #000000"></rect>
    <rect x="4.25" y="11" width="7" height="2" rx="0.75" style="fill: #000000"></rect>
    <rect x="4.25" y="14.5" width="7" height="2" rx="0.75" style="fill: #000000"></rect>
    <rect x="4.25" y="18" width="7" height="2" rx="0.75" style="fill: #000000"></rect>
    <rect x="12.75" y="18" width="7" height="2" rx="0.75" style="fill: #000000"></rect>
    <rect x="12.75" y="11" width="7" height="2" rx="0.75" style="fill: #000000"></rect>
    <rect x="12.75" y="14.5" width="7" height="2" rx="0.75" style="fill: #000000"></rect>
  </g></g></svg>