<?xml version="1.0" encoding="utf-8"?>
<!-- Generator: Adobe Illustrator 25.4.5, SVG Export Plug-In . SVG Version: 6.00 Build 0)  -->
<svg version="1.1" id="Ebene_1" xmlns="http://www.w3.org/2000/svg" xmlns:xlink="http://www.w3.org/1999/xlink" x="0px" y="0px"
	 viewBox="0 0 27.78 19.22" style="enable-background:new 0 0 27.78 19.22;" xml:space="preserve">
<style type="text/css">
	.st0{fill:#299386;}
	.st1{fill:#FFFFFF;}
</style>
<path class="st1" d="M23.62,4.42c-0.4-0.43-0.93-0.66-1.5-0.66c0,0,0,0,0,0c-0.57,0-1.1,0.23-1.5,0.66l-6.61,7.03L6.82,4.38
	C6.39,3.95,5.83,3.73,5.25,3.75C4.66,3.78,4.12,4.04,3.72,4.49c-0.8,0.92-0.75,2.37,0.12,3.23l8.62,8.5
	c0.41,0.4,0.94,0.62,1.49,0.62c0.03,0,0.05,0,0.08,0c0.59-0.02,1.13-0.28,1.52-0.74c0.03-0.04,0.06-0.07,0.1-0.13
	c0.09-0.07,0.17-0.14,0.24-0.22l7.71-8.2C24.43,6.69,24.43,5.28,23.62,4.42z"/>
</svg>
