<svg xmlns="http://www.w3.org/2000/svg" viewBox="0 0 500 500">
  
<g transform="matrix(20.833333333333332,0,0,20.833333333333332,0,0)"><g>
    <path d="M7,12.91a1,1,0,0,0-1.37,0,1,1,0,0,0,0,1.38l.34.34a.49.49,0,0,1,0,.69L.57,20.68A1.94,1.94,0,0,0,0,22.06a1.91,1.91,0,0,0,.57,1.37A1.91,1.91,0,0,0,1.94,24h0a1.94,1.94,0,0,0,1.38-.57l5.36-5.36A.48.48,0,0,1,9,17.93a.5.5,0,0,1,.35.14l.34.34a1,1,0,0,0,1.38,0,1,1,0,0,0,0-1.37Z" style="fill: #000000"></path>
    <path d="M19.45,6.62a1.47,1.47,0,0,0,.42.06H20A1.63,1.63,0,0,0,21.21,6h0l1.92-2.56A1.09,1.09,0,0,0,23,2L22,1A1.08,1.08,0,0,0,20.58.85L18,2.68a1.62,1.62,0,0,0-.71,1.22,1.69,1.69,0,0,0,.08.67.49.49,0,0,1-.12.5L13.08,9.19a.24.24,0,0,1-.35,0L9.51,6a.48.48,0,0,1-.12-.47A4.38,4.38,0,0,0,4,.15.48.48,0,0,0,3.81,1L5.26,2.41a.49.49,0,0,1,.14.29l.17,1.55a.46.46,0,0,1-.14.4A.48.48,0,0,1,5,4.79L3.49,4.62a.53.53,0,0,1-.29-.14L1.75,3a.49.49,0,0,0-.47-.12.48.48,0,0,0-.35.34A4.4,4.4,0,0,0,2.06,7.47,4.36,4.36,0,0,0,6.29,8.6a.5.5,0,0,1,.47.13L10,11.94a.27.27,0,0,1,0,.36l-.17.16a.74.74,0,0,0,0,1l.69.69a.72.72,0,0,0,.52.21.69.69,0,0,0,.51-.21L19,6.75A.48.48,0,0,1,19.45,6.62Z" style="fill: #000000"></path>
    <path d="M22.72,15.75a4.35,4.35,0,0,0-4.23-1.14.48.48,0,0,1-.47-.12l-2.18-2.18a.51.51,0,0,0-.69,0l-2.06,2.06a.49.49,0,0,0,0,.69l2.18,2.18a.5.5,0,0,1,.13.47,4.36,4.36,0,0,0,1.13,4.23,4.43,4.43,0,0,0,3.1,1.28,4.33,4.33,0,0,0,1.13-.15.48.48,0,0,0,.34-.35.49.49,0,0,0-.12-.47L19.52,20.8a.47.47,0,0,1-.14-.29L19.21,19a.48.48,0,0,1,.14-.39.46.46,0,0,1,.4-.14l1.55.17a.44.44,0,0,1,.28.14L23,20.19a.48.48,0,0,0,.81-.22A4.39,4.39,0,0,0,22.72,15.75Z" style="fill: #000000"></path>
  </g></g></svg>