<svg xmlns="http://www.w3.org/2000/svg" viewBox="0 0 48 48">
  
<g transform="matrix(2,0,0,2,0,0)"><g>
    <path d="M7.5,10.5h-1a1,1,0,0,0,0,2h1a1,1,0,0,0,0-2Z" style="fill: #229387"></path>
    <path d="M12.5,10.5h-1a1,1,0,0,0,0,2h1a1,1,0,0,0,0-2Z" style="fill: #229387"></path>
    <path d="M17.5,10.5h-1a1,1,0,0,0,0,2h1a1,1,0,0,0,0-2Z" style="fill: #229387"></path>
    <path d="M7.5,14.5h-1a1,1,0,0,0,0,2h1a1,1,0,0,0,0-2Z" style="fill: #229387"></path>
    <path d="M12.5,14.5h-1a1,1,0,0,0,0,2h1a1,1,0,0,0,0-2Z" style="fill: #229387"></path>
    <path d="M17.5,14.5h-1a1,1,0,0,0,0,2h1a1,1,0,0,0,0-2Z" style="fill: #229387"></path>
    <path d="M7.5,18.5h-1a1,1,0,0,0,0,2h1a1,1,0,0,0,0-2Z" style="fill: #229387"></path>
    <path d="M12.5,18.5h-1a1,1,0,0,0,0,2h1a1,1,0,0,0,0-2Z" style="fill: #229387"></path>
    <path d="M17.5,18.5h-1a1,1,0,0,0,0,2h1a1,1,0,0,0,0-2Z" style="fill: #229387"></path>
    <path d="M21.5,3H18.75a.25.25,0,0,1-.25-.25V1a1,1,0,0,0-2,0V5.75a.75.75,0,0,1-1.5,0V3.5a.5.5,0,0,0-.5-.5H8.25A.25.25,0,0,1,8,2.75V1A1,1,0,0,0,6,1V5.75a.75.75,0,0,1-1.5,0V3.5A.5.5,0,0,0,4,3H2.5a2,2,0,0,0-2,2V22a2,2,0,0,0,2,2h19a2,2,0,0,0,2-2V5A2,2,0,0,0,21.5,3Zm0,18.5a.5.5,0,0,1-.5.5H3a.5.5,0,0,1-.5-.5V9.5A.5.5,0,0,1,3,9H21a.5.5,0,0,1,.5.5Z" style="fill: #229387"></path>
  </g></g></svg>