<?xml version="1.0" encoding="utf-8"?>
<!-- Generator: Adobe Illustrator 25.4.5, SVG Export Plug-In . SVG Version: 6.00 Build 0)  -->
<svg version="1.1" id="Ebene_1" xmlns="http://www.w3.org/2000/svg" xmlns:xlink="http://www.w3.org/1999/xlink" x="0px" y="0px"
	 viewBox="0 0 48.69 48.54" style="enable-background:new 0 0 48.69 48.54;" xml:space="preserve">
<style type="text/css">
	.st0{fill:#1E7D74;}
	.st1{fill:#FFFFFF;stroke:#FFFFFF;stroke-width:0.7;stroke-linejoin:round;}
	.st2{fill:#FFFFFF;stroke:#FFFFFF;stroke-width:0.7;stroke-linejoin:round;stroke-miterlimit:4;}
	.st3{fill:#FFFFFF;}
	.st4{fill:none;stroke:#FFFFFF;stroke-width:2;}
	.st5{fill:#FFFFFF;stroke:#FFFFFF;}
	.st6{opacity:0.2;fill:none;stroke:#FFFFFF;stroke-width:2;enable-background:new    ;}
</style>
<path class="st0" d="M24.36,0.72L24.36,0.72c12.98,0,23.5,10.52,23.5,23.5l0,0c0,12.98-10.52,23.5-23.5,23.5l0,0
	c-12.98,0-23.5-10.52-23.5-23.5l0,0C0.86,11.24,11.38,0.72,24.36,0.72z"/>
<path class="st1" d="M20.4,15.02l-5.97,0.18c-0.52,0.02-0.95-0.39-0.98-0.91l0,0c-0.02-0.52,0.38-0.95,0.89-0.96l5.97-0.18
	c0.52-0.02,0.95,0.39,0.98,0.91l0,0C21.32,14.58,20.92,15.01,20.4,15.02z"/>
<path class="st2" d="M13.49,20.09l-0.04-5.54c0-0.5,0.4-0.9,0.9-0.9l0,0c0.5,0,0.91,0.41,0.91,0.91l0.04,5.54c0,0.5-0.4,0.9-0.9,0.9
	l0,0C13.9,21,13.49,20.59,13.49,20.09z"/>
<path class="st2" d="M21.33,22.55l-6.44-6.56c-0.35-0.36-0.34-0.92,0.02-1.27l0,0c0.36-0.34,0.94-0.34,1.29,0.02l6.44,6.56
	c0.35,0.36,0.34,0.92-0.02,1.27l0,0C22.25,22.92,21.67,22.91,21.33,22.55z"/>
<path class="st1" d="M15.17,28.65l0.18,5.97c0.02,0.52-0.39,0.95-0.91,0.98l0,0c-0.52,0.02-0.95-0.38-0.96-0.89l-0.18-5.97
	c-0.02-0.52,0.39-0.95,0.91-0.98l0,0C14.72,27.73,15.16,28.13,15.17,28.65z"/>
<path class="st2" d="M20.24,35.56L14.7,35.6c-0.5,0-0.9-0.4-0.9-0.9l0,0c0-0.5,0.41-0.91,0.91-0.91l5.54-0.04c0.5,0,0.9,0.4,0.9,0.9
	l0,0C21.15,35.15,20.74,35.56,20.24,35.56z"/>
<path class="st2" d="M22.7,27.73l-6.56,6.44c-0.36,0.35-0.92,0.34-1.27-0.02l0,0c-0.34-0.36-0.34-0.94,0.02-1.29l6.56-6.44
	c0.36-0.35,0.92-0.34,1.27,0.02l0,0C23.06,26.8,23.05,27.38,22.7,27.73z"/>
<path class="st1" d="M28.8,33.55l5.97-0.18c0.52-0.02,0.95,0.39,0.98,0.91l0,0c0.02,0.52-0.38,0.95-0.89,0.96l-5.97,0.18
	c-0.52,0.02-0.95-0.39-0.98-0.91l0,0C27.88,34,28.28,33.56,28.8,33.55z"/>
<path class="st2" d="M35.71,28.48l0.04,5.54c0,0.5-0.4,0.9-0.9,0.9l0,0c-0.5,0-0.91-0.41-0.91-0.91l-0.04-5.54
	c0-0.5,0.4-0.9,0.9-0.9l0,0C35.3,27.57,35.71,27.98,35.71,28.48z"/>
<path class="st2" d="M27.87,26.02l6.44,6.56c0.35,0.36,0.34,0.92-0.02,1.27l0,0c-0.36,0.34-0.94,0.34-1.29-0.02l-6.44-6.56
	c-0.35-0.36-0.34-0.92,0.02-1.27l0,0C26.95,25.65,27.52,25.66,27.87,26.02z"/>
<path class="st1" d="M33.7,20.25l-0.18-5.97c-0.02-0.52,0.39-0.95,0.91-0.98l0,0c0.52-0.02,0.95,0.38,0.96,0.89l0.18,5.97
	c0.02,0.52-0.39,0.95-0.91,0.98l0,0C34.14,21.17,33.71,20.77,33.7,20.25z"/>
<path class="st2" d="M28.63,13.34l5.54-0.04c0.5,0,0.9,0.4,0.9,0.9l0,0c0,0.5-0.41,0.91-0.91,0.91l-5.54,0.04
	c-0.5,0-0.9-0.4-0.9-0.9l0,0C27.72,13.75,28.13,13.34,28.63,13.34z"/>
<path class="st2" d="M26.17,21.18l6.56-6.44c0.36-0.35,0.92-0.34,1.27,0.02l0,0c0.34,0.36,0.34,0.94-0.02,1.29l-6.56,6.44
	c-0.36,0.35-0.92,0.34-1.27-0.02l0,0C25.8,22.1,25.81,21.53,26.17,21.18z"/>
</svg>
