<svg xmlns="http://www.w3.org/2000/svg" viewBox="0 0 48 48">
  
<g transform="matrix(2,0,0,2,0,0)"><g>
    <path d="M9.3,6a.25.25,0,0,0,.21-.12.25.25,0,0,0,0-.24L7,.28a.52.52,0,0,0-.9,0L3.48,5.64a.25.25,0,0,0,0,.24A.25.25,0,0,0,3.7,6Z" style="fill: #1e7d73"></path>
    <path d="M3.5,20.25a.25.25,0,0,0-.25.25v.25a3.25,3.25,0,0,0,6.5,0V20.5a.25.25,0,0,0-.25-.25Z" style="fill: #1e7d73"></path>
    <path d="M19.25,0h-5a1.5,1.5,0,0,0-1.5,1.5V2.75A.25.25,0,0,0,13,3h1.75a.5.5,0,0,1,0,1H13a.25.25,0,0,0-.25.25v2.5A.25.25,0,0,0,13,7h1.75a.5.5,0,0,1,0,1H13a.25.25,0,0,0-.25.25v2.5A.25.25,0,0,0,13,11h1.75a.5.5,0,0,1,0,1H13a.25.25,0,0,0-.25.25v2.5A.25.25,0,0,0,13,15h1.75a.5.5,0,0,1,0,1H13a.25.25,0,0,0-.25.25V22.5a1.5,1.5,0,0,0,1.5,1.5h5a1.5,1.5,0,0,0,1.5-1.5V1.5A1.5,1.5,0,0,0,19.25,0Zm-2.5,19.5a1.25,1.25,0,1,1-1.25,1.25A1.25,1.25,0,0,1,16.75,19.5Z" style="fill: #1e7d73"></path>
    <g>
      <path d="M6,7.5A.5.5,0,0,0,5.5,7h-2a.25.25,0,0,0-.25.25V19a.25.25,0,0,0,.25.25h2a.5.5,0,0,0,.5-.5Z" style="fill: #1e7d73"></path>
      <path d="M9.75,7.25A.25.25,0,0,0,9.5,7h-2a.5.5,0,0,0-.5.5V18.75a.5.5,0,0,0,.5.5h2A.25.25,0,0,0,9.75,19Z" style="fill: #1e7d73"></path>
    </g>
  </g></g></svg>