<svg xmlns="http://www.w3.org/2000/svg" viewBox="0 0 48 48">
  
<g transform="matrix(2,0,0,2,0,0)"><g>
    <path d="M6.27,20.46a.51.51,0,0,0,0-.42.53.53,0,0,0-.3-.29,4.6,4.6,0,0,0-1.48-.25A4.51,4.51,0,0,0,.05,23.44a.51.51,0,0,0,.12.39A.5.5,0,0,0,.55,24H5a.5.5,0,0,0,.5-.5A6.56,6.56,0,0,1,6.27,20.46Z" style="fill: #229387"></path>
    <path d="M16,10.5a1,1,0,0,1-.92-1.37,9.87,9.87,0,0,1,2.56-3.67A1,1,0,0,1,19,7a8,8,0,0,0-2,2.92A1,1,0,0,1,16,10.5Z" style="fill: #229387"></path>
    <path d="M8,10.5a1,1,0,0,1-.93-.63A8,8,0,0,0,5.05,7,1,1,0,0,1,6.38,5.46,9.87,9.87,0,0,1,8.94,9.13,1,1,0,0,1,8,10.5Z" style="fill: #229387"></path>
    <circle cx="19.52" cy="16" r="2.5" style="fill: #229387"></circle>
    <path d="M18.52,23.5a.5.5,0,0,0,.5.5h4.46a.5.5,0,0,0,.38-.17.51.51,0,0,0,.12-.39A4.5,4.5,0,0,0,18,19.75a.52.52,0,0,0-.31.29.51.51,0,0,0,0,.42A6.53,6.53,0,0,1,18.52,23.5Z" style="fill: #229387"></path>
    <circle cx="4.52" cy="16" r="2.5" style="fill: #229387"></circle>
    <path d="M14,18.9a.26.26,0,0,1-.15-.21.27.27,0,0,1,.12-.23,3.75,3.75,0,1,0-3.87,0,.25.25,0,0,1,.12.23.26.26,0,0,1-.15.21,5,5,0,0,0-3,4.58.47.47,0,0,0,.14.37.51.51,0,0,0,.36.15h9a.51.51,0,0,0,.36-.15.47.47,0,0,0,.14-.37A4.94,4.94,0,0,0,14,18.9Zm-2-1.4a2.25,2.25,0,0,1-2.25-2.25,2.4,2.4,0,0,1,.11-.71.22.22,0,0,1,.16-.15.25.25,0,0,1,.22,0,4.92,4.92,0,0,0,2.76.84,4.83,4.83,0,0,0,.94-.09.25.25,0,0,1,.22.06.3.3,0,0,1,.08.2A2.25,2.25,0,0,1,12,17.5Z" style="fill: #229387"></path>
    <path d="M5.59,2.5l-.34,0A2,2,0,0,1,3.56.76L3.51.43A.5.5,0,0,0,3,0a.51.51,0,0,0-.5.43l0,.33A2,2,0,0,1,.78,2.46l-.33,0A.51.51,0,0,0,0,3a.5.5,0,0,0,.42.5l.34,0a2,2,0,0,1,1.69,1.7l0,.33A.51.51,0,0,0,3,6a.5.5,0,0,0,.49-.43l.05-.33a2,2,0,0,1,1.7-1.7l.33,0A.51.51,0,0,0,6,3,.52.52,0,0,0,5.59,2.5Z" style="fill: #229387"></path>
    <path d="M14.09,2l-.27,0h0A1.52,1.52,0,0,1,12.55.69l0-.26a.5.5,0,0,0-1,0l0,.27A1.51,1.51,0,0,1,10.21,2L9.94,2a.51.51,0,0,0,0,1l.27,0a1.51,1.51,0,0,1,1.27,1.28l0,.26a.5.5,0,0,0,1,0l0-.26A1.52,1.52,0,0,1,13.82,3l.27,0a.51.51,0,0,0,0-1Z" style="fill: #229387"></path>
    <path d="M12,10a1,1,0,0,1-1-1V7a1,1,0,0,1,2,0V9A1,1,0,0,1,12,10Z" style="fill: #229387"></path>
  </g></g></svg>