<svg xmlns="http://www.w3.org/2000/svg" viewBox="0 0 48 48">
  
<g transform="matrix(2,0,0,2,0,0)"><g>
    <path d="M14.35,20.18A.53.53,0,0,0,14,20H10a.49.49,0,0,0-.38.18l-2.1,2.53a.49.49,0,0,0,0,.52A.48.48,0,0,0,8,23.5H16a.5.5,0,0,0,.44-.27.51.51,0,0,0,0-.52Z" style="fill: #229387"></path>
    <path d="M22.5.5H1.5A1.5,1.5,0,0,0,0,2V17.5A1.5,1.5,0,0,0,1.5,19h21A1.5,1.5,0,0,0,24,17.5V2A1.5,1.5,0,0,0,22.5.5ZM22,15a.5.5,0,0,1-.5.5H2.5A.5.5,0,0,1,2,15V3a.5.5,0,0,1,.5-.5h19A.5.5,0,0,1,22,3Z" style="fill: #229387"></path>
    <path d="M19.65,6.37l-7-2.78a.56.56,0,0,0-.36,0l-7,2.78A.51.51,0,0,0,5,6.85v3.9a.75.75,0,0,0,1.5,0V8.43A.51.51,0,0,1,6.68,8,.5.5,0,0,1,7.14,8L12.3,9.78a.5.5,0,0,0,.34,0l7-2.47A.5.5,0,0,0,20,6.85.51.51,0,0,0,19.65,6.37Z" style="fill: #229387"></path>
    <path d="M16.3,9.55l-3.66,1.29a.5.5,0,0,1-.34,0L8.64,9.55a.5.5,0,0,0-.46.06A.51.51,0,0,0,8,10v2.5A.5.5,0,0,0,8.3,13l3,1.06a3.64,3.64,0,0,0,1.17.2,3.54,3.54,0,0,0,1.16-.2l3-1.06a.5.5,0,0,0,.33-.47V10a.51.51,0,0,0-.21-.41A.5.5,0,0,0,16.3,9.55Z" style="fill: #229387"></path>
  </g></g></svg>